<?xml version="1.0" encoding="UTF-8"?>
<svg xmlns="http://www.w3.org/2000/svg" xmlns:xlink="http://www.w3.org/1999/xlink" width="810pt" height="1439.999935pt" viewBox="0 0 810 1439.999935" version="1.2">
<g id="surface1">
<path style=" stroke:none;fill-rule:nonzero;fill:rgb(100%,100%,100%);fill-opacity:1;" d="M 772.753906 717.015625 C 772.753906 767.949219 754.472656 811.132812 717.921875 846.558594 C 681.363281 881.996094 635.386719 899.703125 580 899.703125 C 522.394531 899.703125 459.035156 877.5625 389.914062 833.273438 C 359.335938 813.34375 328.535156 793.414062 297.523438 773.480469 C 264.292969 754.453125 233.933594 744.917969 206.464844 744.917969 C 177.222656 744.917969 149.738281 752.457031 124.046875 767.503906 C 108.09375 776.371094 85.5 793.640625 56.25 819.316406 C 54.480469 820.648438 52.703125 821.316406 50.933594 821.316406 C 44.734375 821.316406 41.632812 818.21875 41.632812 812.011719 C 41.632812 809.800781 42.523438 807.8125 44.289062 806.035156 C 75.300781 779.027344 99.886719 760.644531 118.066406 750.894531 C 146.417969 734.957031 176.773438 726.980469 209.121094 726.980469 C 251.660156 726.980469 296.628906 740.265625 344.042969 766.839844 C 383.035156 791.648438 422.03125 816.667969 461.03125 841.910156 C 506.222656 868.480469 547.203125 881.765625 583.988281 881.765625 C 631.398438 881.765625 669.730469 865.605469 698.976562 833.273438 C 726.890625 802.714844 740.851562 763.964844 740.851562 717.015625 C 740.851562 670.515625 726.664062 631.320312 698.3125 599.433594 C 669.945312 567.550781 633.839844 551.605469 589.972656 551.605469 C 568.699219 551.605469 551.859375 555.257812 539.453125 562.566406 C 527.042969 569.875 520.847656 578.84375 520.847656 589.472656 C 520.847656 595.230469 522.722656 599.769531 526.5 603.09375 C 530.261719 606.414062 533.914062 609.632812 537.464844 612.722656 C 543.660156 618.039062 546.765625 624.683594 546.765625 632.652344 C 546.765625 640.191406 544.109375 646.496094 538.792969 651.582031 C 533.476562 656.679688 527.042969 659.222656 519.511719 659.222656 C 509.3125 659.222656 500.457031 655.019531 492.925781 646.601562 C 484.0625 637.300781 479.636719 624.683594 479.636719 608.734375 C 479.636719 587.476562 489.613281 569.652344 509.550781 555.257812 C 529.488281 540.871094 556.292969 533.664062 589.972656 533.664062 C 639.15625 533.664062 681.90625 551.71875 718.25 587.804688 C 754.578125 623.910156 772.753906 666.976562 772.753906 717.015625 Z M 772.753906 717.015625 "/>
</g>
</svg>
