<?xml version="1.0" encoding="UTF-8"?>
<svg xmlns="http://www.w3.org/2000/svg" xmlns:xlink="http://www.w3.org/1999/xlink" width="810pt" height="1439.999935pt" viewBox="0 0 810 1439.999935" version="1.2">
<g id="surface1">
<path style=" stroke:none;fill-rule:nonzero;fill:rgb(100%,100%,100%);fill-opacity:1;" d="M 39.425781 718.125 C 39.425781 769.054688 57.703125 812.242188 94.253906 847.664062 C 130.816406 883.101562 176.792969 900.8125 232.179688 900.8125 C 289.785156 900.8125 353.144531 878.671875 422.265625 834.382812 C 452.839844 814.453125 483.644531 794.519531 514.652344 774.589844 C 547.886719 755.558594 578.246094 746.027344 605.714844 746.027344 C 634.957031 746.027344 662.441406 753.5625 688.128906 768.613281 C 704.085938 777.480469 726.679688 794.75 755.929688 820.425781 C 757.699219 821.757812 759.476562 822.421875 761.246094 822.421875 C 767.445312 822.421875 770.546875 819.324219 770.546875 813.117188 C 770.546875 810.910156 769.65625 808.917969 767.890625 807.144531 C 736.878906 780.132812 712.289062 761.75 694.113281 752.003906 C 665.761719 736.066406 635.40625 728.089844 603.058594 728.089844 C 560.519531 728.089844 515.550781 741.375 468.132812 767.949219 C 429.144531 792.757812 390.148438 817.773438 351.148438 843.015625 C 305.957031 869.585938 264.976562 882.875 228.191406 882.875 C 180.78125 882.875 142.445312 866.710938 113.199219 834.382812 C 85.285156 803.824219 71.324219 765.074219 71.324219 718.125 C 71.324219 671.625 85.515625 632.429688 113.867188 600.542969 C 142.234375 568.65625 178.339844 552.714844 222.207031 552.714844 C 243.480469 552.714844 260.316406 556.367188 272.722656 563.675781 C 285.136719 570.980469 291.328125 579.953125 291.328125 590.582031 C 291.328125 596.339844 289.457031 600.875 285.679688 604.199219 C 281.917969 607.519531 278.265625 610.742188 274.714844 613.828125 C 268.519531 619.144531 265.410156 625.789062 265.410156 633.761719 C 265.410156 641.296875 268.070312 647.605469 273.386719 652.691406 C 278.703125 657.789062 285.136719 660.332031 292.667969 660.332031 C 302.867188 660.332031 311.722656 656.128906 319.253906 647.707031 C 328.117188 638.40625 332.542969 625.789062 332.542969 609.839844 C 332.542969 588.582031 322.566406 570.761719 302.628906 556.363281 C 282.691406 541.976562 255.886719 534.773438 222.207031 534.773438 C 173.023438 534.773438 130.273438 552.824219 93.929688 588.914062 C 57.601562 625.019531 39.425781 668.085938 39.425781 718.125 Z M 39.425781 718.125 "/>
</g>
</svg>
